<mxfile modified="2023-09-01T15:30:06.437Z" host="app.diagrams.net" agent="Mozilla/5.0 (X11; Linux x86_64; rv:109.0) Gecko/20100101 Firefox/115.0" etag="EX3urVuhW4fzSOIASDIZ" version="21.7.2" type="device">
  <diagram id="Ht1M8jgEwFfnCIfOTk4-" name="Page-1">
    <mxGraphModel dx="1434" dy="1534" grid="1" gridSize="10" guides="1" tooltips="1" connect="1" arrows="1" fold="1" page="1" pageScale="1" pageWidth="1169" pageHeight="827" math="0" shadow="0">
      <root>
        <mxCell id="0" />
        <mxCell id="1" parent="0" />
        <mxCell id="SGy8oM-2hKL47Hc91DFO-52" value="" style="ellipse;whiteSpace=wrap;html=1;" vertex="1" parent="1">
          <mxGeometry x="428" y="-758" width="260" height="220" as="geometry" />
        </mxCell>
        <mxCell id="SGy8oM-2hKL47Hc91DFO-53" value="Amazon S3&lt;br&gt;Bucket&lt;br&gt;" style="outlineConnect=0;fontColor=#232F3E;gradientColor=none;fillColor=#277116;strokeColor=none;dashed=0;verticalLabelPosition=bottom;verticalAlign=top;align=center;html=1;fontSize=12;fontStyle=0;aspect=fixed;pointerEvents=1;shape=mxgraph.aws4.bucket_with_objects;labelBackgroundColor=#ffffff;" vertex="1" parent="1">
          <mxGeometry x="573" y="-518" width="75" height="78" as="geometry" />
        </mxCell>
        <mxCell id="SGy8oM-2hKL47Hc91DFO-54" value="" style="sketch=0;points=[[0,0,0],[0.25,0,0],[0.5,0,0],[0.75,0,0],[1,0,0],[0,1,0],[0.25,1,0],[0.5,1,0],[0.75,1,0],[1,1,0],[0,0.25,0],[0,0.5,0],[0,0.75,0],[1,0.25,0],[1,0.5,0],[1,0.75,0]];outlineConnect=0;fontColor=#232F3E;gradientColor=#4D72F3;gradientDirection=north;fillColor=#3334B9;strokeColor=#ffffff;dashed=0;verticalLabelPosition=bottom;verticalAlign=top;align=center;html=1;fontSize=12;fontStyle=0;aspect=fixed;shape=mxgraph.aws4.resourceIcon;resIcon=mxgraph.aws4.database;" vertex="1" parent="1">
          <mxGeometry x="458" y="-679.5" width="78" height="78" as="geometry" />
        </mxCell>
        <mxCell id="SGy8oM-2hKL47Hc91DFO-55" value="RDS" style="text;html=1;align=center;verticalAlign=middle;resizable=0;points=[];autosize=1;strokeColor=none;fillColor=none;" vertex="1" parent="1">
          <mxGeometry x="452" y="-698" width="50" height="30" as="geometry" />
        </mxCell>
        <mxCell id="SGy8oM-2hKL47Hc91DFO-56" value="" style="outlineConnect=0;dashed=0;verticalLabelPosition=bottom;verticalAlign=top;align=center;html=1;shape=mxgraph.aws3.ec2;fillColor=#F58534;gradientColor=none;" vertex="1" parent="1">
          <mxGeometry x="598" y="-687" width="76.5" height="93" as="geometry" />
        </mxCell>
        <mxCell id="SGy8oM-2hKL47Hc91DFO-57" value="&lt;div&gt;VPC&lt;/div&gt;" style="text;html=1;align=center;verticalAlign=middle;resizable=0;points=[];autosize=1;strokeColor=none;fillColor=none;" vertex="1" parent="1">
          <mxGeometry x="513" y="-760" width="50" height="30" as="geometry" />
        </mxCell>
        <mxCell id="SGy8oM-2hKL47Hc91DFO-58" value="" style="outlineConnect=0;dashed=0;verticalLabelPosition=bottom;verticalAlign=top;align=center;html=1;shape=mxgraph.aws3.elastic_ip;fillColor=#F58534;gradientColor=none;" vertex="1" parent="1">
          <mxGeometry x="718" y="-575" width="76.5" height="21" as="geometry" />
        </mxCell>
        <mxCell id="SGy8oM-2hKL47Hc91DFO-59" value="&lt;div&gt;elastic ip&lt;/div&gt;" style="text;html=1;align=center;verticalAlign=middle;resizable=0;points=[];autosize=1;strokeColor=none;fillColor=none;" vertex="1" parent="1">
          <mxGeometry x="723" y="-610" width="70" height="30" as="geometry" />
        </mxCell>
        <mxCell id="SGy8oM-2hKL47Hc91DFO-60" value="" style="endArrow=classic;html=1;rounded=0;exitX=0;exitY=0.5;exitDx=0;exitDy=0;exitPerimeter=0;" edge="1" parent="1" source="SGy8oM-2hKL47Hc91DFO-58" target="SGy8oM-2hKL47Hc91DFO-56">
          <mxGeometry width="50" height="50" relative="1" as="geometry">
            <mxPoint x="673" y="-570" as="sourcePoint" />
            <mxPoint x="723" y="-620" as="targetPoint" />
          </mxGeometry>
        </mxCell>
        <mxCell id="SGy8oM-2hKL47Hc91DFO-61" value="Amazon CloudWatch" style="sketch=0;outlineConnect=0;fontColor=#232F3E;gradientColor=none;strokeColor=#ffffff;fillColor=#232F3E;dashed=0;verticalLabelPosition=middle;verticalAlign=bottom;align=center;html=1;whiteSpace=wrap;fontSize=10;fontStyle=1;spacing=3;shape=mxgraph.aws4.productIcon;prIcon=mxgraph.aws4.cloudwatch;" vertex="1" parent="1">
          <mxGeometry x="374" y="-518" width="80" height="110" as="geometry" />
        </mxCell>
        <mxCell id="SGy8oM-2hKL47Hc91DFO-62" value="" style="endArrow=classic;html=1;rounded=0;" edge="1" parent="1" target="SGy8oM-2hKL47Hc91DFO-56">
          <mxGeometry width="50" height="50" relative="1" as="geometry">
            <mxPoint x="448" y="-504" as="sourcePoint" />
            <mxPoint x="498" y="-554" as="targetPoint" />
          </mxGeometry>
        </mxCell>
        <mxCell id="SGy8oM-2hKL47Hc91DFO-63" value="" style="endArrow=classic;html=1;rounded=0;" edge="1" parent="1" target="SGy8oM-2hKL47Hc91DFO-54">
          <mxGeometry width="50" height="50" relative="1" as="geometry">
            <mxPoint x="408" y="-518" as="sourcePoint" />
            <mxPoint x="458" y="-568" as="targetPoint" />
          </mxGeometry>
        </mxCell>
        <mxCell id="SGy8oM-2hKL47Hc91DFO-64" value="&lt;div&gt;EC2&lt;/div&gt;" style="text;html=1;align=center;verticalAlign=middle;resizable=0;points=[];autosize=1;strokeColor=none;fillColor=none;" vertex="1" parent="1">
          <mxGeometry x="612" y="-710" width="50" height="30" as="geometry" />
        </mxCell>
        <mxCell id="SGy8oM-2hKL47Hc91DFO-65" value="" style="shape=flexArrow;endArrow=classic;startArrow=classic;html=1;rounded=0;" edge="1" parent="1">
          <mxGeometry width="100" height="100" relative="1" as="geometry">
            <mxPoint x="538" y="-638" as="sourcePoint" />
            <mxPoint x="598" y="-638" as="targetPoint" />
          </mxGeometry>
        </mxCell>
        <mxCell id="SGy8oM-2hKL47Hc91DFO-66" value="&lt;div&gt;security group RDS &lt;br&gt;&lt;/div&gt;" style="label;whiteSpace=wrap;html=1;image=img/clipart/Gear_128x128.png" vertex="1" parent="1">
          <mxGeometry x="396" y="-358" width="140" height="60" as="geometry" />
        </mxCell>
        <mxCell id="SGy8oM-2hKL47Hc91DFO-67" value="" style="edgeStyle=elbowEdgeStyle;elbow=horizontal;endArrow=classic;html=1;curved=0;rounded=0;endSize=8;startSize=8;exitX=0.55;exitY=0.05;exitDx=0;exitDy=0;exitPerimeter=0;" edge="1" parent="1" source="SGy8oM-2hKL47Hc91DFO-66" target="SGy8oM-2hKL47Hc91DFO-54">
          <mxGeometry width="50" height="50" relative="1" as="geometry">
            <mxPoint x="472" y="-368" as="sourcePoint" />
            <mxPoint x="522" y="-418" as="targetPoint" />
          </mxGeometry>
        </mxCell>
        <mxCell id="SGy8oM-2hKL47Hc91DFO-68" value="" style="edgeStyle=segmentEdgeStyle;endArrow=classic;html=1;curved=0;rounded=0;endSize=8;startSize=8;exitX=0.364;exitY=-0.067;exitDx=0;exitDy=0;exitPerimeter=0;" edge="1" parent="1" source="SGy8oM-2hKL47Hc91DFO-69" target="SGy8oM-2hKL47Hc91DFO-56">
          <mxGeometry width="50" height="50" relative="1" as="geometry">
            <mxPoint x="618" y="-378" as="sourcePoint" />
            <mxPoint x="668" y="-428" as="targetPoint" />
          </mxGeometry>
        </mxCell>
        <mxCell id="SGy8oM-2hKL47Hc91DFO-69" value="&lt;div&gt;security group EC2&lt;/div&gt;" style="label;whiteSpace=wrap;html=1;image=img/clipart/Gear_128x128.png" vertex="1" parent="1">
          <mxGeometry x="573" y="-358" width="140" height="60" as="geometry" />
        </mxCell>
        <mxCell id="SGy8oM-2hKL47Hc91DFO-70" value="" style="verticalLabelPosition=bottom;sketch=0;html=1;fillColor=#282828;strokeColor=none;verticalAlign=top;pointerEvents=1;align=center;shape=mxgraph.cisco_safe.security_icons.iam;" vertex="1" parent="1">
          <mxGeometry x="513.63" y="-218" width="88.75" height="110" as="geometry" />
        </mxCell>
        <mxCell id="SGy8oM-2hKL47Hc91DFO-71" value="&lt;div&gt;IAM&lt;/div&gt;" style="text;html=1;align=center;verticalAlign=middle;resizable=0;points=[];autosize=1;strokeColor=none;fillColor=none;" vertex="1" parent="1">
          <mxGeometry x="544" y="-248" width="40" height="30" as="geometry" />
        </mxCell>
        <mxCell id="SGy8oM-2hKL47Hc91DFO-72" value="" style="endArrow=classic;html=1;rounded=0;" edge="1" parent="1" target="SGy8oM-2hKL47Hc91DFO-69">
          <mxGeometry width="50" height="50" relative="1" as="geometry">
            <mxPoint x="584" y="-208" as="sourcePoint" />
            <mxPoint x="634" y="-258" as="targetPoint" />
            <Array as="points">
              <mxPoint x="604" y="-228" />
            </Array>
          </mxGeometry>
        </mxCell>
        <mxCell id="SGy8oM-2hKL47Hc91DFO-73" value="" style="endArrow=classic;html=1;rounded=0;exitX=0.184;exitY=0.264;exitDx=0;exitDy=0;exitPerimeter=0;" edge="1" parent="1" source="SGy8oM-2hKL47Hc91DFO-70" target="SGy8oM-2hKL47Hc91DFO-66">
          <mxGeometry width="50" height="50" relative="1" as="geometry">
            <mxPoint x="448" y="-238" as="sourcePoint" />
            <mxPoint x="478" y="-278" as="targetPoint" />
            <Array as="points">
              <mxPoint x="468" y="-258" />
            </Array>
          </mxGeometry>
        </mxCell>
        <mxCell id="SGy8oM-2hKL47Hc91DFO-74" value="" style="endArrow=classic;startArrow=classic;html=1;rounded=0;" edge="1" parent="1" source="SGy8oM-2hKL47Hc91DFO-53" target="SGy8oM-2hKL47Hc91DFO-56">
          <mxGeometry width="50" height="50" relative="1" as="geometry">
            <mxPoint x="585.5" y="-525" as="sourcePoint" />
            <mxPoint x="635.5" y="-575" as="targetPoint" />
            <Array as="points">
              <mxPoint x="605.5" y="-545" />
            </Array>
          </mxGeometry>
        </mxCell>
        <mxCell id="SGy8oM-2hKL47Hc91DFO-75" value="" style="image;aspect=fixed;perimeter=ellipsePerimeter;html=1;align=center;shadow=0;dashed=0;spacingTop=3;image=img/lib/active_directory/internet_globe.svg;" vertex="1" parent="1">
          <mxGeometry x="930" y="-490" width="110" height="110" as="geometry" />
        </mxCell>
        <mxCell id="SGy8oM-2hKL47Hc91DFO-76" value="&lt;div&gt;internet&lt;/div&gt;" style="text;html=1;align=center;verticalAlign=middle;resizable=0;points=[];autosize=1;strokeColor=none;fillColor=none;" vertex="1" parent="1">
          <mxGeometry x="955" y="-518" width="60" height="30" as="geometry" />
        </mxCell>
        <mxCell id="SGy8oM-2hKL47Hc91DFO-77" value="" style="verticalLabelPosition=bottom;html=1;verticalAlign=top;strokeWidth=1;align=center;outlineConnect=0;dashed=0;outlineConnect=0;shape=mxgraph.aws3d.elasticLoadBalancing;fillColor=#ECECEC;strokeColor=#5E5E5E;aspect=fixed;" vertex="1" parent="1">
          <mxGeometry x="923" y="-679.5" width="92" height="88.17" as="geometry" />
        </mxCell>
        <mxCell id="SGy8oM-2hKL47Hc91DFO-78" value="" style="endArrow=classic;startArrow=classic;html=1;rounded=0;" edge="1" parent="1" source="SGy8oM-2hKL47Hc91DFO-75" target="SGy8oM-2hKL47Hc91DFO-77">
          <mxGeometry width="50" height="50" relative="1" as="geometry">
            <mxPoint x="960" y="-518" as="sourcePoint" />
            <mxPoint x="1010" y="-568" as="targetPoint" />
          </mxGeometry>
        </mxCell>
        <mxCell id="SGy8oM-2hKL47Hc91DFO-79" value="" style="endArrow=classic;startArrow=classic;html=1;rounded=0;exitX=1;exitY=0.5;exitDx=0;exitDy=0;exitPerimeter=0;" edge="1" parent="1" source="SGy8oM-2hKL47Hc91DFO-56" target="SGy8oM-2hKL47Hc91DFO-77">
          <mxGeometry width="50" height="50" relative="1" as="geometry">
            <mxPoint x="800" y="-615.5" as="sourcePoint" />
            <mxPoint x="850" y="-665.5" as="targetPoint" />
          </mxGeometry>
        </mxCell>
        <mxCell id="SGy8oM-2hKL47Hc91DFO-80" value="&lt;div&gt;ELB&lt;/div&gt;" style="text;html=1;align=center;verticalAlign=middle;resizable=0;points=[];autosize=1;strokeColor=none;fillColor=none;" vertex="1" parent="1">
          <mxGeometry x="944" y="-710" width="50" height="30" as="geometry" />
        </mxCell>
      </root>
    </mxGraphModel>
  </diagram>
</mxfile>
